# xmcd
# 
# Track frame offsets:
#     150
#     12080
#     51382
#     79105
#     92172
#     108235
#     112025
#     125695
#     139002
#     152925
#     165872
#     176825
#     194225
#     211417
#     213645
#     227305
#     244537
# 
# Disc length: 3319
# 
# Revision: 6
# Processed by: cddbd v1.5.2PL0 Copyright (c) Steve Scherf et al.
# Submitted via: fre:ac v1.0.31
# 
DISCID=ec0cf511
DTITLE=Johann Sebastian Bach - Das Kantatenwerk Vol. 6, BWV 106 - 108
DYEAR=1980
DGENRE=Classical
TTITLE0=Cantata BWV 106 "Gottes Zeit ist die allerbeste Zeit" (Actus Trgicus) - 1 Sonatina
TTITLE1=Cantata BWV 106 "Gottes Zeit ist die allerbeste Zeit" (Actus Trgicus) - 2 Coro: Gottes Zeit ist die allerbeste Zeit
TTITLE2=Cantata BWV 106 "Gottes Zeit ist die allerbeste Zeit" (Actus Trgicus) - 3 Aria Alto: In deine Hände befehl ich meinen Geist
TTITLE3=Cantata BWV 106 "Gottes Zeit ist die allerbeste Zeit" (Actus Trgicus) - 4 Coro: Glorie, Lob, Ehr und Herrlichkeit
TTITLE4=Cantata BWV 107 "Was willst du dich betrüben" - 1 Coro Was willst du dich betrüben
TTITLE5=Cantata BWV 107 "Was willst du dich betrüben" - 2 Recitativo Denn Gott verlässet keinen
TTITLE6=Cantata BWV 107 "Was willst du dich betrüben" - 3 Aria Auf ihn magst du es wagen
TTITLE7=Cantata BWV 107 "Was willst du dich betrüben" - 4 Aria Wenn auch gleich aus der Höllen
TTITLE8=Cantata BWV 107 "Was willst du dich betrüben" - 5 Aria Er richts zu seinen Ehren
TTITLE9=Cantata BWV 107 "Was willst du dich betrüben" - 6 Aria Drum ich mich ihm ergebe
TTITLE10=Cantata BWV 107 "Was willst du dich betrüben" - 7 Coro Herr, gib, daß ich dein Ehre
TTITLE11=Cantata BWV 108 "Es ist euch gut, daß ich hingehe" - 1 Aria Es ist euch gut, daß ich hingehe
TTITLE12=Cantata BWV 108 "Es ist euch gut, daß ich hingehe" - 2 Aria Mich kann kein Zweifel stören
TTITLE13=Cantata BWV 108 "Es ist euch gut, daß ich hingehe" - 3 Recitativo Dein Geist wird mich also regieren
TTITLE14=Cantata BWV 108 "Es ist euch gut, daß ich hingehe" - 4 Coro Wenn aber jener, der Geist der Wahrheit, kommen wird
TTITLE15=Cantata BWV 108 "Es ist euch gut, daß ich hingehe" - 5 Aria Was mein Herz von dir begehrt
TTITLE16=Cantata BWV 108 "Es ist euch gut, daß ich hingehe" - 6 Coro Dein Geist, den Gott vom Himmel gibt
EXTD=
EXTT0=
EXTT1=
EXTT2=
EXTT3=
EXTT4=
EXTT5=
EXTT6=
EXTT7=
EXTT8=
EXTT9=
EXTT10=
EXTT11=
EXTT12=
EXTT13=
EXTT14=
EXTT15=
EXTT16=
PLAYORDER=
